<svg width="12" height="18" viewBox="0 0 12 18" fill="none" xmlns="http://www.w3.org/2000/svg">
<path d="M10.8462 0H1.15385C0.517627 0 0 0.5085 0 1.13351V17.3199C0 17.5666 0.13592 17.7937 0.355152 17.9139C0.460152 17.9715 0.576246 18 0.692304 18C0.818776 18 0.944783 17.9662 1.05622 17.8987L6.00138 14.8994L10.9458 17.8769C11.1595 18.0059 11.4275 18.0111 11.646 17.8905C11.8645 17.7704 12 17.5435 12 17.2973V1.13351C12 0.5085 11.4824 0 10.8462 0ZM10.6154 16.0823L6.36208 13.5208C6.13916 13.3867 5.85855 13.3873 5.63631 13.522L1.38461 16.1007V1.3602H10.6154V16.0823Z" fill="#292929"/>
</svg>
