<svg width="18" height="20" viewBox="0 0 18 20" fill="none" xmlns="http://www.w3.org/2000/svg">
<path fill-rule="evenodd" clip-rule="evenodd" d="M5.99977 2C5.44749 2 4.99977 1.55229 4.99977 1C4.99977 0.44772 5.44749 0 5.99977 0H10.2424C10.7947 0 11.2424 0.44772 11.2424 1C11.2424 1.55229 10.7947 2 10.2424 2H9.1211V3.87868C9.1211 3.90477 9.1201 3.93062 9.1181 3.9562C10.5329 4.15405 11.829 4.72191 12.9056 5.55883L13.2929 5.17158C13.6834 4.78105 14.3166 4.78105 14.7071 5.17158C15.0976 5.5621 15.0976 6.19527 14.7071 6.58579L14.3199 6.97304C15.2038 8.11018 15.7876 9.49208 15.9523 11H17C17.5523 11 18 11.4477 18 12C18 12.5523 17.5523 13 17 13H15.922C15.3768 16.8874 12.0377 19.8787 8 19.8787C3.58172 19.8787 0 16.297 0 11.8787C0 7.75705 3.11691 4.36341 7.1222 3.92629C7.1215 3.91051 7.1211 3.89464 7.1211 3.87868V2H5.99977ZM14 11.8787C14 15.1924 11.3137 17.8787 8 17.8787C4.68629 17.8787 2 15.1924 2 11.8787C2 8.56498 4.68629 5.87868 8 5.87868C11.3137 5.87868 14 8.56498 14 11.8787ZM5.29289 9.17158C5.68342 8.78108 6.3166 8.78108 6.7071 9.17158L8.7071 11.1716C9.0976 11.5621 9.0976 12.1953 8.7071 12.5858C8.3166 12.9763 7.6834 12.9763 7.2929 12.5858L5.29289 10.5858C4.90237 10.1953 4.90237 9.56208 5.29289 9.17158Z" fill="#53AA51"/>
</svg>
