<svg width="18" height="18" viewBox="0 0 18 18" fill="none" xmlns="http://www.w3.org/2000/svg">
<path d="M17.0064 2.03608e-08H0.992725C0.444397 0.000329612 -0.000109843 0.445056 2.03608e-08 0.993603V17.0073C0.000329612 17.5556 0.445056 18.0001 0.993603 18H9.61523V11.0391H7.27734V8.31445H9.61523V6.30934C9.61523 3.98408 11.0348 2.71846 13.109 2.71846C14.1025 2.71846 14.9562 2.7925 15.2051 2.82557V5.25586H13.7748C12.6463 5.25586 12.4277 5.7921 12.4277 6.57916V8.31445H15.126L14.7744 11.0391H12.4277V18H17.0064C17.5551 18.0001 17.9999 17.5555 18 17.0068C18 17.0067 18 17.0066 18 17.0064V0.992725C17.9998 0.444397 17.5549 -0.000109843 17.0064 2.03608e-08Z" fill="#292929"/>
</svg>
