<svg width="26" height="26" viewBox="0 0 26 26" fill="none" xmlns="http://www.w3.org/2000/svg">
<path d="M19.5 0H6.5C2.92532 0 0 2.92532 0 6.5V19.5006C0 23.0744 2.92532 26.0006 6.5 26.0006H19.5C23.0747 26.0006 26 23.0744 26 19.5006V6.5C26 2.92532 23.0747 0 19.5 0ZM23.8332 19.5006C23.8332 21.8894 21.8901 23.8339 19.5 23.8339H6.5C4.11093 23.8339 2.16677 21.8894 2.16677 19.5006V6.5C2.16677 4.11062 4.11093 2.16677 6.5 2.16677H19.5C21.8901 2.16677 23.8332 4.11062 23.8332 6.5V19.5006Z" fill="#7E7F81"/>
<path d="M19.2148 15.4444H17.0093V24.3749H13.7413C13.7413 24.3749 13.7413 19.4953 13.7413 15.4444H12.1877V12.288H13.7413V10.2464C13.7413 8.78427 14.3528 6.49951 17.0394 6.49951L19.4611 6.51006V9.57397C19.4611 9.57397 17.9895 9.57397 17.7034 9.57397C17.4172 9.57397 17.0104 9.73651 17.0104 10.4338V12.2886H19.5004L19.2148 15.4444Z" fill="#7E7F81"/>
</svg>
