<svg width="14" height="18" viewBox="0 0 14 18" fill="none" xmlns="http://www.w3.org/2000/svg">
<path d="M13.1514 2.17501C12.9897 2.08062 12.79 2.08062 12.6283 2.17501C12.0021 2.52369 11.297 2.7045 10.5809 2.7C9.53389 2.72324 8.52155 2.3233 7.77127 1.59001C6.90513 0.739055 5.73404 0.274078 4.52228 0.300023C3.5464 0.291551 2.59227 0.58943 1.79338 1.15204V0.9C1.79338 0.402961 1.39193 0 0.896688 0C0.401443 0 0 0.402926 0 0.9V17.1C0 17.597 0.401443 18 0.896688 18C1.3919 18 1.79338 17.5971 1.79338 17.1V9.29999C1.89243 9.29067 1.98679 9.25323 2.06536 9.19199C2.77647 8.66637 3.63922 8.38828 4.52228 8.39999C5.5712 8.3758 6.58575 8.77577 7.33788 9.50998C8.20238 10.3597 9.37116 10.8246 10.5809 10.8C11.508 10.8108 12.4174 10.5445 13.1933 10.035C13.3593 9.91948 13.456 9.72763 13.4503 9.52495V2.7C13.4522 2.48372 13.338 2.28315 13.1514 2.17501Z" fill="black"/>
</svg>
