<svg width="18" height="12" viewBox="0 0 18 12" fill="none" xmlns="http://www.w3.org/2000/svg">
<path fill-rule="evenodd" clip-rule="evenodd" d="M0 1C0 0.447715 0.447715 0 1 0H17C17.5523 0 18 0.447715 18 1C18 1.55228 17.5523 2 17 2H1C0.447715 2 0 1.55228 0 1ZM0 6C0 5.44772 0.447715 5 1 5H11C11.5523 5 12 5.44772 12 6C12 6.55228 11.5523 7 11 7H1C0.447715 7 0 6.55228 0 6ZM1 10C0.447715 10 0 10.4477 0 11C0 11.5523 0.447715 12 1 12H5C5.55228 12 6 11.5523 6 11C6 10.4477 5.55228 10 5 10H1Z" fill="white"/>
</svg>
