<svg width="26" height="26" viewBox="0 0 26 26" fill="none" xmlns="http://www.w3.org/2000/svg">
<path d="M19.5 0H6.5C2.92532 0 0 2.92532 0 6.5V19.5006C0 23.0744 2.92532 26.0006 6.5 26.0006H19.5C23.0747 26.0006 26 23.0744 26 19.5006V6.5C26 2.92532 23.0747 0 19.5 0ZM23.8332 19.5006C23.8332 21.8894 21.8901 23.8339 19.5 23.8339H6.5C4.11093 23.8339 2.16677 21.8894 2.16677 19.5006V6.5C2.16677 4.11062 4.11093 2.16677 6.5 2.16677H19.5C21.8901 2.16677 23.8332 4.11062 23.8332 6.5V19.5006Z" fill="#7E7F81"/>
<path d="M13 6.49951C9.40938 6.49951 6.5 9.40921 6.5 12.9995C6.5 16.5885 9.40938 19.5001 13 19.5001C16.5896 19.5001 19.5 16.5885 19.5 12.9995C19.5 9.40921 16.5896 6.49951 13 6.49951ZM13 17.3334C10.607 17.3334 8.66677 15.3931 8.66677 12.9995C8.66677 10.6059 10.607 8.66628 13 8.66628C15.393 8.66628 17.3332 10.6059 17.3332 12.9995C17.3332 15.3931 15.393 17.3334 13 17.3334Z" fill="#7E7F81"/>
</svg>
