<svg width="20" height="20" viewBox="0 0 20 20" fill="none" xmlns="http://www.w3.org/2000/svg">
<path fill-rule="evenodd" clip-rule="evenodd" d="M10 0C4.47715 0 0 4.47715 0 10C0 15.5228 4.47715 20 10 20C15.5228 20 20 15.5228 20 10C20 4.47715 15.5228 0 10 0ZM2 10C2 5.58172 5.58172 2 10 2C14.4183 2 18 5.58172 18 10C18 14.4183 14.4183 18 10 18C5.58172 18 2 14.4183 2 10ZM9.0484 5.30902C9.3478 4.38771 10.6512 4.3877 10.9505 5.30902L11.7098 7.6459H14.167C15.1357 7.6459 15.5385 8.8855 14.7548 9.4549L12.7669 10.8992L13.5262 13.2361C13.8256 14.1574 12.7711 14.9235 11.9874 14.3541L9.9995 12.9098L8.0116 14.3541C7.22791 14.9235 6.17343 14.1574 6.47278 13.2361L7.23208 10.8992L5.24421 9.4549C4.4605 8.8855 4.86327 7.6459 5.83199 7.6459H8.2891L9.0484 5.30902Z" fill="#53AA51"/>
</svg>
