<svg width="15" height="15" viewBox="0 0 15 15" fill="none" xmlns="http://www.w3.org/2000/svg">
<path d="M14.6991 2.09854C14.6332 2.12154 14.5668 2.14337 14.5 2.16403C14.2731 2.23419 14.1078 1.90974 14.2697 1.71186C14.4396 1.50423 14.5894 1.27443 14.7152 1.02681C14.8332 0.794765 14.6254 0.524812 14.4148 0.637126C13.9778 0.86992 13.5151 1.04947 13.0328 1.1697C12.9548 1.18911 12.8744 1.15829 12.8175 1.0933C10.6036 -1.43302 6.76053 0.742858 7.22497 4.31708C7.24758 4.49122 7.12159 4.64227 6.97093 4.62803C4.47537 4.39065 2.25704 3.03563 0.697522 0.99998C0.584345 0.852256 0.377448 0.88825 0.307624 1.06872C-0.218486 2.4299 0.00464994 4.03163 0.87573 5.13752C1.03784 5.34332 0.866787 5.66818 0.63707 5.58761C0.413648 5.50929 0.200243 5.40481 0 5.27741V5.32541C0 6.75774 0.695018 8.0052 1.7197 8.6485C1.92738 8.7789 1.89189 9.18974 1.54099 9.16017C1.36278 9.14517 1.23286 9.35872 1.30955 9.54668C1.74566 10.6155 2.60465 11.413 3.63971 11.6557C3.84889 11.7046 3.8994 12.0249 3.71869 12.1572C2.68392 12.9147 1.51044 13.3124 0.326083 13.3499C0.0806263 13.3577 0.00701105 13.743 0.227428 13.8693C1.48883 14.5914 2.91049 15 4.41535 15C10.4902 15 13.8107 9.23182 13.8107 4.22868C13.8107 4.11311 13.8098 3.99755 13.8069 3.88249C13.8048 3.79217 13.8403 3.70735 13.9028 3.65369C14.2812 3.32816 14.6292 2.95556 14.9396 2.54513C15.0957 2.33867 14.9253 2.01964 14.6991 2.09854Z" fill="#292929"/>
</svg>
