<svg width="26" height="26" viewBox="0 0 26 26" fill="none" xmlns="http://www.w3.org/2000/svg">
<path d="M19.5 0H6.5C2.92532 0 0 2.92532 0 6.5V19.5006C0 23.0744 2.92532 26.0006 6.5 26.0006H19.5C23.0747 26.0006 26 23.0744 26 19.5006V6.5C26 2.92532 23.0747 0 19.5 0ZM23.8332 19.5006C23.8332 21.8894 21.8901 23.8339 19.5 23.8339H6.5C4.11093 23.8339 2.16677 21.8894 2.16677 19.5006V6.5C2.16677 4.11062 4.11093 2.16677 6.5 2.16677H19.5C21.8901 2.16677 23.8332 4.11062 23.8332 6.5V19.5006Z" fill="#7E7F81"/>
<path d="M20.0522 8.90345C19.9951 8.92088 19.9375 8.93744 19.8796 8.95311C19.6829 9.00631 19.5397 8.76027 19.68 8.6102C19.8273 8.45275 19.9571 8.27848 20.0661 8.09069C20.1684 7.91472 19.9883 7.71 19.8058 7.79518C19.427 7.97172 19.026 8.10788 18.608 8.19906C18.5404 8.21378 18.4707 8.1904 18.4214 8.14112C16.5026 6.22528 13.1719 7.87536 13.5744 10.5859C13.594 10.7179 13.4848 10.8325 13.3542 10.8217C11.1914 10.6417 9.26877 9.61409 7.91716 8.07035C7.81907 7.95832 7.63975 7.98562 7.57924 8.12248C7.12326 9.15473 7.31665 10.3694 8.07161 11.2081C8.21211 11.3641 8.06386 11.6105 7.86476 11.5494C7.67113 11.49 7.48617 11.4108 7.31262 11.3141V11.3505C7.31262 12.4368 7.91499 13.3828 8.80306 13.8706C8.98306 13.9695 8.9523 14.2811 8.64818 14.2586C8.49373 14.2473 8.38113 14.4092 8.4476 14.5518C8.82557 15.3623 9.57004 15.9671 10.4671 16.1511C10.6484 16.1883 10.6922 16.4311 10.5356 16.5314C9.63874 17.1059 8.6217 17.4075 7.59523 17.436C7.3825 17.4418 7.3187 17.7341 7.50973 17.8298C8.60298 18.3774 9.83511 18.6873 11.1394 18.6873C16.4044 18.6873 19.2822 14.313 19.2822 10.5188C19.2822 10.4312 19.2814 10.3436 19.2789 10.2563C19.2771 10.1878 19.3079 10.1235 19.362 10.0828C19.69 9.83593 19.9916 9.55337 20.2606 9.24212C20.3959 9.08554 20.2482 8.84361 20.0522 8.90345Z" fill="#7E7F81"/>
</svg>
