<svg width="24" height="36" viewBox="0 0 24 36" fill="none" xmlns="http://www.w3.org/2000/svg">
<g opacity="0.5">
<path d="M12 0C5.38307 0 0 5.64713 0 12.5881V22.6123C0 29.5532 5.38307 35.2 12 35.2C18.6165 35.2 24 29.5703 24 22.6508V12.5881C24 5.64713 18.6165 0 12 0ZM21.7429 22.6508C21.7429 28.2851 17.3725 32.8689 12 32.8689C6.62784 32.8689 2.2571 28.2677 2.2571 22.6119V12.5881C2.2571 6.93234 6.62784 2.33111 12 2.33111C17.3726 2.33111 21.7429 6.93234 21.7429 12.5881V22.6508Z" fill="white"/>
<path d="M11.8694 9.63509C11.246 9.63509 10.7408 10.1569 10.7408 10.8007V14.8802C10.7408 15.5239 11.246 16.0457 11.8694 16.0457C12.4927 16.0457 12.9979 15.5239 12.9979 14.8802V10.8007C12.9979 10.1569 12.4927 9.63509 11.8694 9.63509Z" fill="white"/>
</g>
</svg>
